<?xml version="1.0" encoding="UTF-8"?>
<!DOCTYPE svg PUBLIC "-//W3C//DTD SVG 1.1//EN" "http://www.w3.org/Graphics/SVG/1.1/DTD/svg11.dtd">
<!-- Creator: CorelDRAW -->
<svg xmlns="http://www.w3.org/2000/svg" xml:space="preserve" width="210mm" height="297mm" version="1.1" style="shape-rendering:geometricPrecision; text-rendering:geometricPrecision; image-rendering:optimizeQuality; fill-rule:evenodd; clip-rule:evenodd"
viewBox="0 0 21000 29700"
 xmlns:xlink="http://www.w3.org/1999/xlink"
 xmlns:xodm="http://www.corel.com/coreldraw/odm/2003">
 <defs>
  <style type="text/css">
   <![CDATA[
    .str1 {stroke:#373435;stroke-width:105.83;stroke-miterlimit:22.9256}
    .str0 {stroke:black;stroke-width:105.83;stroke-miterlimit:22.9256}
    .str2 {stroke:black;stroke-width:70.56;stroke-miterlimit:22.9256}
    .str3 {stroke:#239E7D;stroke-width:52.92;stroke-miterlimit:22.9256}
    .str4 {stroke:#FFFEF8;stroke-width:20;stroke-miterlimit:22.9256}
    .fil1 {fill:none}
    .fil2 {fill:#FFFEF8}
    .fil0 {fill:#025B98}
    .fil4 {fill:#189DD8}
    .fil3 {fill:#2DD997}
   ]]>
  </style>
 </defs>
 <g id="Capa_x0020_1">
  <metadata id="CorelCorpID_0Corel-Layer"/>
  <g id="_2478707476912">
   <path class="fil0 str0" d="M9992.41 11544.88c101.2,-90.42 245.77,-216.79 335.62,-283.24 89.84,-66.45 124.95,-72.99 160.06,-72.99 35.11,0 70.22,6.54 193.11,100.22 122.89,93.69 333.55,274.53 438.89,364.95 105.33,90.41 105.33,90.41 105.33,90.41 0,0 0,0 -241.64,0 -241.65,0 -724.94,0 -966.59,0 -241.65,0 -241.65,0 -241.65,0 0,0 0,0 28.92,-27.23 28.91,-27.24 86.75,-81.7 187.95,-172.12z"/>
   <path class="fil1 str1" d="M13406.43 14032.65c0,0 0,0 53.7,-28.92 53.7,-28.92 161.09,-86.75 214.8,-115.66 53.69,-28.92 53.69,-28.92 71.5,-25.61 17.79,3.3 53.4,9.9 89,16.51"/>
   <path class="fil2 str2" d="M10383.8 11744.23c864.35,6.2 1804.08,4.13 2273.95,3.1 469.86,-1.03 469.86,-1.03 493.61,3.1 23.76,4.13 71.26,12.39 113.6,38.21 42.34,25.81 79.51,69.19 99.13,145.61 19.63,76.42 21.69,185.88 25.91,533.81 4.21,347.92 10.57,934.31 13.76,1227.51 3.18,293.19 3.18,293.19 3.18,293.19 0,0 0,0 -435.87,311.96 -435.88,311.95 -1307.62,935.86 -1743.49,1247.82 -435.88,311.96 -435.88,311.96 -564.45,321.31 -128.58,9.35 -385.73,28.06 -917.56,-251.79 -531.82,-279.86 -1338.34,-858.28 -1741.59,-1147.49 -403.25,-289.21 -403.25,-289.21 -403.25,-289.21 0,0 0,0 -2.07,-374.87 -2.06,-374.86 -6.2,-1124.58 -8.26,-1499.45 -2.07,-374.86 -2.07,-374.86 6.2,-392.42 8.26,-17.55 24.78,-52.66 54.73,-83.64 29.95,-30.98 73.32,-57.83 123.93,-77.46 50.59,-19.62 108.42,-32 531.82,-30.97 423.4,1.03 1212.36,15.48 2076.72,21.68z"/>
   <ellipse class="fil3 str3" cx="10498.09" cy="13664.83" rx="1266.84" ry="1265.53"/>
   <path class="fil2 str4" d="M9841.7 13802.82c107.33,101.78 305.61,289.73 404.75,383.7 99.13,93.98 99.13,93.98 99.13,93.98 0,0 0,0 158,-174.53 158,-174.52 474,-523.56 632.01,-698.08 157.99,-174.53 157.99,-174.53 157.99,-174.53 0,0 0,0 -29.94,-28.91 -29.95,-28.92 -89.85,-86.75 -119.8,-115.67 -29.95,-28.91 -29.95,-28.91 -29.95,-28.91 0,0 0,0 -130.11,145.6 -130.12,145.61 -390.36,436.83 -520.47,582.43 -130.12,145.61 -130.12,145.61 -130.12,145.61 0,0 0,0 -77.45,-73.31 -77.45,-73.33 -232.35,-219.97 -309.8,-293.28 -77.45,-73.33 -77.45,-73.33 -77.45,-73.33 0,0 0,0 -17.56,18.59 -17.56,18.59 -52.66,55.76 -70.22,74.35 -17.56,18.59 -17.56,18.59 -17.56,18.59 0,0 0,0 -10.26,10.78 -10.27,10.78 -30.79,32.33 -41.05,43.11 -10.27,10.78 -10.27,10.78 -10.27,10.78 0,0 0,0 8.2,7.81 8.19,7.81 24.6,23.43 131.93,125.22z"/>
   <path class="fil0 str0" d="M7447.89 13613.38c-72.29,55.76 -192.08,150.77 -255.07,202.4 -63,51.63 -69.2,59.9 -72.29,76.42 -3.1,16.52 -3.1,41.31 -3.1,785.87 0,744.56 0,2208.9 0,2951.39 0,742.5 0,763.16 5.16,780.71 5.16,17.56 15.49,32.01 30.99,48.54 15.48,16.52 36.13,35.11 59.89,44.4 23.75,9.3 50.6,9.3 1144.2,9.3 1093.61,0 3253.97,0 4334.15,0 1080.18,0 1080.18,0 1089.48,-6.2 9.29,-6.2 27.87,-18.59 42.33,-34.08 14.46,-15.49 24.78,-34.07 32.02,-52.66 7.22,-18.59 11.35,-37.18 12.39,-795.17 1.03,-757.98 -1.04,-2255.37 -5.17,-3008.19 -4.13,-752.82 -10.33,-761.09 -85.71,-822.02 -75.39,-60.93 -219.96,-174.52 -292.25,-231.32 -72.29,-56.8 -72.29,-56.8 -72.29,-56.8 0,0 0,0 -1.03,87.79 -1.03,87.77 -3.1,263.33 -4.13,351.11 -1.03,87.78 -1.03,87.78 -1.03,87.78 0,0 0,0 0,0 0,0 0,0 0,0 0,0 0,0 -412.04,253 -412.04,253.01 -1236.12,759.02 -1649.18,1017.19 -413.08,258.17 -415.14,268.5 -438.89,301.55 -23.75,33.04 -69.19,88.8 -91.91,116.69 -22.72,27.88 -22.72,27.88 489.42,450.26 512.12,422.38 1536.38,1267.15 2048.51,1689.54 512.13,422.38 512.13,422.38 512.13,422.38 0,0 0,0 -510.24,-424.71 -510.23,-424.71 -1530.71,-1274.12 -2069.69,-1718.19 -538.98,-444.07 -596.46,-482.8 -630.37,-505.26 -33.91,-22.45 -44.23,-28.65 -61.79,-34.85 -17.55,-6.19 -42.34,-12.39 -67.12,-15.49 -24.78,-3.1 -49.57,-3.1 -70.22,1.03 -20.66,4.13 -37.18,12.4 -62.99,30.98 -25.82,18.59 -60.93,47.51 -608.15,493.64 -547.22,446.13 -1606.55,1309.47 -2136.21,1741.14 -529.67,431.67 -529.67,431.67 -529.67,431.67 0,0 0,0 514.18,-419.28 514.17,-419.28 1542.52,-1257.84 2056.7,-1677.12 514.17,-419.28 514.17,-419.28 514.17,-419.28 0,0 0,0 -22.72,-29.94 -22.72,-29.95 -68.16,-89.85 -97.07,-128.06 -28.92,-38.21 -41.31,-54.73 -491.56,-337.68 -450.25,-282.95 -1338.35,-832.34 -1782.4,-1107.03 -444.05,-274.7 -444.05,-274.7 -458.51,-279.86 -14.46,-5.17 -43.37,-15.49 -72.11,-27.88 -28.74,-12.4 -57.32,-26.85 -83.98,-15.54 -26.67,11.3 -51.44,48.37 -63.82,66.9 -12.38,18.53 -12.38,18.53 -12.05,12.74 0.34,-5.8 1.01,-17.39 6.57,-30.18 5.57,-12.79 16.02,-26.78 28.07,-39.52 12.05,-12.73 25.69,-24.23 96.36,-82.63 70.67,-58.41 198.38,-163.75 262.23,-216.41 63.85,-52.67 63.85,-52.67 63.85,-52.67 0,0 0,0 -70.67,58.41 -70.67,58.41 -212.02,175.23 -282.69,233.65 -70.67,58.4 -70.67,58.4 -49.53,59.55 21.13,1.13 63.39,3.42 101.6,11.87 38.19,8.45 72.34,23.07 122.69,50.81 50.35,27.74 116.93,68.59 150.22,89.03 33.29,20.42 33.29,20.42 31.44,-62.74 -1.85,-83.16 -5.55,-249.48 -7.4,-332.64 -1.85,-83.16 -1.85,-83.16 -1.85,-83.16 0,0 0,0 -12.39,8.27 -12.39,8.26 -37.18,24.78 -109.46,80.55z"/>
   <path class="fil1 str0" d="M13380.71 14048.44c109.54,-59.53 219.08,-119.07 280.03,-150.06 60.95,-31 73.32,-33.46 94.33,-31.94 21.02,1.52 50.7,7.03 80.36,12.53"/>
   <path class="fil4" d="M7651.95 17807.82c501.59,-409.25 1503.99,-1227.52 2005.63,-1636.23 501.63,-408.71 502.52,-407.87 500.54,-409.51 -1.99,-1.65 -6.84,-5.78 -24.96,-29.54 -18.11,-23.77 -49.47,-67.16 -76.22,-102.12 -26.77,-34.97 -48.92,-61.5 -227.37,-180.89 -178.46,-119.4 -513.22,-331.66 -704.37,-452.43 -191.15,-120.78 -238.68,-150.08 -316.66,-197.72 -77.98,-47.65 -186.42,-113.63 -375.83,-231.3 -189.42,-117.66 -459.82,-287 -647.74,-403.17 -187.91,-116.17 -293.35,-179.15 -371.4,-223.29 -78.06,-44.14 -128.73,-69.43 -160.64,-82.97 -31.91,-13.54 -45.06,-15.32 -61.11,-11.45 -16.06,3.87 -35.02,13.39 -44.64,26.93 -9.62,13.54 -9.89,31.09 -10.6,94.9 -0.72,63.79 -1.87,173.85 0.47,889.3 2.34,715.44 8.19,2036.28 10.73,2697.04 2.53,660.76 1.76,661.46 1.78,661.69 0.02,0.23 0.8,0 502.39,-409.24z"/>
  </g>
 </g>
</svg>
