<?xml version="1.0" encoding="UTF-8"?>
<!DOCTYPE svg PUBLIC "-//W3C//DTD SVG 1.1//EN" "http://www.w3.org/Graphics/SVG/1.1/DTD/svg11.dtd">
<!-- Creator: CorelDRAW -->
<svg xmlns="http://www.w3.org/2000/svg" xml:space="preserve" width="210mm" height="297mm" version="1.1" style="shape-rendering:geometricPrecision; text-rendering:geometricPrecision; image-rendering:optimizeQuality; fill-rule:evenodd; clip-rule:evenodd"
viewBox="0 0 21000 29700"
 xmlns:xlink="http://www.w3.org/1999/xlink"
 xmlns:xodm="http://www.corel.com/coreldraw/odm/2003">
 <defs>
  <style type="text/css">
   <![CDATA[
    .str1 {stroke:#373435;stroke-width:105.83;stroke-miterlimit:22.9256}
    .str0 {stroke:black;stroke-width:105.83;stroke-miterlimit:22.9256}
    .str2 {stroke:black;stroke-width:70.56;stroke-miterlimit:22.9256}
    .str3 {stroke:#EC268F;stroke-width:52.92;stroke-miterlimit:22.9256}
    .str4 {stroke:#FFFEF8;stroke-width:20;stroke-miterlimit:22.9256}
    .fil1 {fill:none}
    .fil2 {fill:#FFFEF8}
    .fil0 {fill:#025B98}
    .fil4 {fill:#189DD8}
    .fil3 {fill:red}
   ]]>
  </style>
 </defs>
 <g id="Capa_x0020_1">
  <metadata id="CorelCorpID_0Corel-Layer"/>
  <g id="_2478710963552">
   <path class="fil0 str0" d="M9990.84 11534.51c101.52,-90.71 246.54,-217.47 336.67,-284.13 90.12,-66.66 125.34,-73.22 160.56,-73.22 35.23,0 70.44,6.56 193.72,100.54 123.27,93.98 334.6,275.39 440.26,366.09 105.67,90.7 105.67,90.7 105.67,90.7 0,0 0,0 -242.4,0 -242.41,0 -727.22,0 -969.62,0 -242.41,0 -242.41,0 -242.41,0 0,0 0,0 29.01,-27.32 29,-27.33 87.02,-81.96 188.54,-172.66z"/>
   <path class="fil1 str1" d="M13415.57 14030.08c0,0 0,0 53.87,-29.01 53.86,-29.01 161.6,-87.02 215.47,-116.02 53.86,-29.01 53.86,-29.01 71.72,-25.69 17.86,3.31 53.57,9.93 89.29,16.56"/>
   <path class="fil2 str2" d="M10383.45 11734.49c867.06,6.21 1809.74,4.14 2281.09,3.1 471.34,-1.03 471.34,-1.03 495.16,3.11 23.83,4.14 71.49,12.43 113.96,38.33 42.47,25.9 79.76,69.41 99.44,146.07 19.69,76.65 21.76,186.46 25.99,535.48 4.22,349.01 10.61,937.25 13.8,1231.36 3.19,294.11 3.19,294.11 3.19,294.11 0,0 0,0 -437.24,312.94 -437.24,312.93 -1311.72,938.8 -1748.96,1251.74 -437.24,312.93 -437.24,312.93 -566.22,322.31 -128.98,9.39 -386.94,28.16 -920.43,-252.57 -533.5,-280.74 -1342.54,-860.98 -1747.05,-1151.09 -404.52,-290.12 -404.52,-290.12 -404.52,-290.12 0,0 0,0 -2.08,-376.04 -2.07,-376.04 -6.22,-1128.12 -8.29,-1504.16 -2.07,-376.04 -2.07,-376.04 6.22,-393.65 8.29,-17.61 24.86,-52.83 54.91,-83.9 30.04,-31.08 73.55,-58.02 124.31,-77.7 50.76,-19.69 108.76,-32.11 533.49,-31.08 424.73,1.04 1216.17,15.54 2083.23,21.76z"/>
   <ellipse class="fil3 str3" cx="10498.11" cy="13661.11" rx="1270.81" ry="1269.5"/>
   <path class="fil0 str0" d="M7438.33 13609.5c-72.51,55.93 -192.67,151.24 -255.87,203.03 -63.19,51.79 -69.41,60.09 -72.51,76.66 -3.11,16.57 -3.11,41.44 -3.11,788.34 0,746.89 0,2215.83 0,2960.65 0,744.83 0,765.55 5.18,783.16 5.18,17.61 15.54,32.11 31.08,48.68 15.53,16.58 36.25,35.23 60.08,44.55 23.82,9.32 50.76,9.32 1147.8,9.32 1097.03,0 3264.17,0 4347.74,0 1083.57,0 1083.57,0 1092.89,-6.22 9.32,-6.21 27.96,-18.64 42.47,-34.18 14.5,-15.54 24.86,-34.18 32.12,-52.83 7.25,-18.64 11.39,-37.29 12.42,-797.66 1.04,-760.36 -1.03,-2262.44 -5.17,-3017.63 -4.15,-755.18 -10.37,-763.47 -85.99,-824.59 -75.62,-61.12 -220.65,-175.07 -293.16,-232.05 -72.52,-56.98 -72.52,-56.98 -72.52,-56.98 0,0 0,0 -1.03,88.06 -1.04,88.05 -3.11,264.16 -4.15,352.22 -1.03,88.05 -1.03,88.05 -1.03,88.05 0,0 0,0 0,0 0,0 0,0 0,0 0,0 0,0 -413.33,253.8 -413.33,253.8 -1240,761.4 -1654.36,1020.38 -414.37,258.98 -416.44,269.34 -440.26,302.49 -23.83,33.15 -69.41,89.08 -92.2,117.05 -22.79,27.97 -22.79,27.97 490.95,451.68 513.73,423.71 1541.21,1271.13 2054.94,1694.84 513.74,423.71 513.74,423.71 513.74,423.71 0,0 0,0 -511.84,-426.04 -511.84,-426.04 -1535.51,-1278.12 -2076.18,-1723.58 -540.67,-445.47 -598.34,-484.32 -632.35,-506.85 -34.02,-22.53 -44.37,-28.75 -61.98,-34.96 -17.62,-6.21 -42.48,-12.43 -67.34,-15.54 -24.86,-3.11 -49.73,-3.11 -70.44,1.04 -20.72,4.14 -37.29,12.43 -63.19,31.08 -25.9,18.64 -61.12,47.65 -610.05,495.18 -548.94,447.53 -1611.6,1313.58 -2142.92,1746.6 -531.32,433.03 -531.32,433.03 -531.32,433.03 0,0 0,0 515.79,-420.6 515.78,-420.59 1547.35,-1261.78 2063.14,-1682.38 515.79,-420.59 515.79,-420.59 515.79,-420.59 0,0 0,0 -22.79,-30.04 -22.79,-30.04 -68.38,-90.13 -97.38,-128.46 -29.01,-38.33 -41.44,-54.9 -493.09,-338.74 -451.67,-283.84 -1342.56,-834.95 -1788,-1110.51 -445.45,-275.55 -445.45,-275.55 -459.94,-280.73 -14.51,-5.18 -43.52,-15.54 -72.35,-27.97 -28.83,-12.44 -57.49,-26.93 -84.24,-15.59 -26.75,11.33 -51.6,48.52 -64.02,67.11 -12.42,18.6 -12.42,18.6 -12.08,12.78 0.33,-5.82 1.01,-17.45 6.59,-30.28 5.58,-12.83 16.07,-26.86 28.15,-39.63 12.09,-12.78 25.77,-24.31 96.67,-82.9 70.89,-58.59 199,-164.26 263.05,-217.08 64.05,-52.84 64.05,-52.84 64.05,-52.84 0,0 0,0 -70.89,58.6 -70.89,58.59 -212.69,175.78 -283.58,234.37 -70.89,58.59 -70.89,58.59 -49.69,59.74 21.2,1.14 63.59,3.43 101.92,11.91 38.32,8.47 72.57,23.15 123.08,50.97 50.51,27.83 117.3,68.81 150.69,89.31 33.39,20.48 33.39,20.48 31.54,-62.93 -1.86,-83.42 -5.57,-250.27 -7.43,-333.69 -1.85,-83.42 -1.85,-83.42 -1.85,-83.42 0,0 0,0 -12.43,8.29 -12.43,8.29 -37.29,24.86 -109.81,80.81z"/>
   <path class="fil1 str0" d="M13389.77 14045.92c109.88,-59.72 219.76,-119.44 280.91,-150.53 61.14,-31.1 73.54,-33.57 94.63,-32.04 21.08,1.53 50.85,7.05 80.61,12.57"/>
   <path class="fil4" d="M7643.04 17817.09c503.16,-410.53 1508.7,-1231.36 2011.92,-1641.36 503.21,-409.99 504.1,-409.14 502.11,-410.79 -2,-1.66 -6.87,-5.8 -25.04,-29.64 -18.16,-23.84 -49.62,-67.37 -76.46,-102.44 -26.85,-35.07 -49.07,-61.69 -228.09,-181.45 -179.01,-119.77 -514.82,-332.7 -706.57,-453.85 -191.75,-121.16 -239.43,-150.55 -317.65,-198.35 -78.23,-47.79 -187.01,-113.98 -377.01,-232.02 -190.02,-118.03 -461.27,-287.9 -649.77,-404.43 -188.51,-116.53 -294.27,-179.71 -372.57,-223.99 -78.3,-44.28 -129.13,-69.65 -161.14,-83.23 -32.02,-13.58 -45.21,-15.38 -61.31,-11.49 -16.11,3.88 -35.13,13.43 -44.78,27.01 -9.65,13.59 -9.92,31.2 -10.63,95.2 -0.72,64 -1.88,174.4 0.47,892.09 2.35,717.68 8.21,2042.67 10.76,2705.5 2.54,662.84 1.78,663.54 1.79,663.77 0.02,0.23 0.8,0 503.97,-410.53z"/>
   <rect class="fil2 str4" transform="matrix(0.435255 0.441713 -0.441713 0.435255 9918.21 12876.9)" width="3081.23" height="447.85"/>
   <rect class="fil2 str4" transform="matrix(-0.435255 0.441713 0.441713 0.435255 11061.5 12876.9)" width="3081.23" height="447.85"/>
  </g>
 </g>
</svg>
